<svg xmlns="http://www.w3.org/2000/svg" xmlns:xlink="http://www.w3.org/1999/xlink" fill="none" version="1.1" width="64" height="68.96804809570312" viewBox="0 0 64 68.96804809570312"><path d="M19.454949531463622,18.84483411683301C19.454949531463622,18.84483411683301,-2.0365049685363767,22.79426647883301,1.495126571463623,46.57571417883301C5.026757931463623,70.357149178833,34.341502531463625,69.130586178833,42.937312531463625,66.503816178833C51.53303053146362,63.873354178833004,68.72457053146363,54.68512117883301,60.89712053146362,32.846970178833004C56.75413053146362,21.58987497883301,47.084407531463626,18.567749768833007,42.47883153146363,18.84483411683301C37.87736053146362,19.11822583883301,19.454949531463622,18.84483411683301,19.454949531463622,18.84483411683301C19.454949531463622,18.84483411683301,19.454949531463622,18.84483411683301,19.454949531463622,18.84483411683301Z" fill="#ACACEF" fill-opacity="1"/><path d="M22.82679852822113,58.959594248046876C17.19368152822113,56.12591524804687,13.23464952822113,51.26394624804688,11.82841552822113,45.677917248046874C9.13739052822113,34.98602324804688,13.43547052822113,23.795379648046875,13.43547052822113,23.795379648046875C13.43547052822113,23.795379648046875,15.62844852822113,20.119354248046875,15.62844852822113,20.119354248046875C9.50988802822113,22.602050748046874,-1.0699759717788697,29.440612748046874,1.5038306982211305,46.579284248046875C5.082077828221131,70.36450224804688,34.78349252822113,69.13421624804687,43.49269052822113,66.50744624804688C47.20901452822113,65.38427724804689,52.515685528221134,63.06414824804688,56.75520252822113,59.077820248046876C43.04075552822113,65.52471924804688,30.59849652822113,62.868347248046874,22.82684452822113,58.959594248046876C22.82684452822113,58.959594248046876,22.82679852822113,58.959594248046876,22.82679852822113,58.959594248046876Z" fill="#9E9AEA" fill-opacity="1"/><path d="M31.822151,68.96804609729004C25.729622,68.96804609729004,18.563408,67.75814609729004,12.516151,63.930998097290036C5.6584854,59.59136809729004,1.5816878,52.77731109729004,0.39698011,43.66944709729004C-1.4912721,29.15498309729004,3.7167585,20.97135909729004,8.4188461,16.661117597290037C13.519936,11.985397297290039,19.024208,10.788116447290038,19.25457,10.73770141229004C19.340935,10.720901483290039,19.431465,10.708282466290038,19.52195,10.71249389129004C19.707069,10.716705316290039,37.865303,11.019165037290039,42.349342,10.716705316290039C47.261192,10.380615237290039,56.233345,13.81704709729004,60.877831,24.64723209729004C61.153465,25.28581209729004,60.865471,26.02937309729004,60.244301,26.306656097290038C59.619011,26.58811909729004,58.890877,26.29405209729004,58.619362,25.65971409729004C54.484993,16.01835629729004,46.722343,12.95162959729004,42.513893,13.23304749729004C38.09568,13.53550719729004,21.517143,13.270858797290039,19.628899,13.237258897290038C18.834953,13.43470759729004,14.194603,14.71180729729004,9.9820938,18.61454769729004C3.8484418,24.294327097290036,1.441902,32.61656209729004,2.8364637,43.34593009729004C3.9183729,51.66815009729004,7.6084213,57.87310609729004,13.807869,61.79678109729004C23.866081,68.16134409729004,37.71714,66.64895409729004,42.489128,64.98113809729004C46.495979,63.58221209729004,66.192711,55.39446809729004,60.478737,31.46537809729004C60.318275,30.78901709729004,60.721428,30.10844409729004,61.383751,29.940414097290038C62.050179,29.772354097290037,62.712517,30.19245909729004,62.877052,30.864639097290038C69.097099,56.91934009729004,47.647881,65.83813309729004,43.287285,67.36312709729003C40.921837,68.18652109729004,36.717552,68.96792409729004,31.822182,68.96792409729004C31.822182,68.96792409729004,31.822151,68.96804609729004,31.822151,68.96804609729004Z" fill="#000F04" fill-opacity="1"/><path d="M25.20935724899292,10.821189842053222C23.03699424899292,8.781822242053224,14.236701448992921,1.5775985420532228,8.00411188899292,12.143821742053223C7.38713800899292,13.189353942053224,7.65683711899292,14.534172042053223,8.64696466899292,15.239799542053223C10.88582584899292,16.839530542053225,13.878364048992921,17.231132542053224,15.41896774899292,17.323509542053223C15.82167764899292,17.349357542053223,16.04703474899292,17.796409542053222,15.82537034899292,18.12889854205322C14.84632064899292,19.61779054205322,13.26137494899292,23.10909154205322,15.98792214899292,27.557227542053223C16.49407144899292,28.38478754205322,17.46202804899292,28.824439542053224,18.415214248992918,28.643408542053223C24.40398324899292,27.50551554205322,26.15517424899292,25.643485542053224,27.57755224899292,22.94280154205322C27.78075324899292,22.554892542053224,28.31645924899292,22.510550542053224,28.59354324899292,22.846747542053222C30.98018624899292,25.743231542053223,33.60697124899292,27.85648254205322,40.14252424899292,26.341727542053224C41.07723224899292,26.123770542053222,41.79393724899292,25.351614542053223,41.92327024899292,24.402121542053223C42.46266924899292,20.45272054205322,41.39125824899292,17.275443542053225,39.48859324899292,15.657279542053223C39.13761124899292,15.358024642053223,39.29648524899292,14.792778042053223,39.74719924899292,14.693016042053223C41.38756524899292,14.330955542053223,42.79888124899292,13.488609342053223,43.74834424899292,12.498497042053224C44.57961224899292,11.630287142053223,44.57591924899292,10.263328542053223,43.777885248992916,9.365562442053223C40.78905424899292,6.003562872053223,33.21532424899292,1.7475509420532225,26.13300324899292,10.754692042053222C25.90764524899292,11.046562242053223,25.47907224899292,11.072410542053223,25.20938824899292,10.821189842053222C25.20938824899292,10.821189842053222,25.20935724899292,10.821189842053222,25.20935724899292,10.821189842053222Z" fill="#BFE5BD" fill-opacity="1"/><path d="M39.747191206207276,14.700408921484375C29.923523206207275,13.943038921484375,31.246170206207275,8.874191321484375,33.787979206207275,5.526947021484375C33.76950120620728,5.530639648484375,33.75102320620728,5.534332275384375,33.728867206207276,5.538024902484375C32.48381120620728,5.8483581514843745,31.427185206207277,6.276931761484375,30.533127206207276,6.764602621484375C29.465409206207276,7.388977021484375,28.382920206207274,8.249786421484375,27.307816206207274,9.398773221484376C26.350952206207275,10.569931021484376,26.025833206207274,11.515716521484375,26.025833206207274,11.515716521484375C26.025833206207274,11.515716521484375,25.914994206207275,11.297744721484374,25.685944206207274,10.994796721484375C25.519699206207275,11.005889921484375,25.346054206207274,10.950469921484375,25.213043206207274,10.824859621484375C24.638947206207277,10.285247821484376,24.031876206207276,9.781829821484376,23.395355206207277,9.317504921484375C23.070236206207277,9.202972421484375,22.715575206207276,9.117996221484375,22.323943206207275,9.077362021484376C14.868438206207276,15.675720021484375,10.176421906207276,14.238571121484375,7.841521916207276,12.487365721484375C7.4536129862072755,13.470108021484375,7.760253608207275,14.615402221484375,8.646926586207275,15.247161821484376C10.885803006207276,16.846878021484375,13.878325906207277,17.238495021484376,15.418944806207275,17.330856021484376C15.821639506207275,17.356720021484374,16.046996606207273,17.803757021484373,15.825332206207275,18.136261021484373C15.274856106207276,18.971222021484373,14.535949206207276,20.434235021484376,14.473144006207274,22.344299021484375C18.400390206207277,16.322266021484374,23.687241206207275,15.830902021484375,24.592392206207276,17.031601021484377C27.954376206207275,21.897247021484375,19.205810206207275,28.488220021484373,19.198425206207276,28.495651021484374C24.562836206207276,27.346664021484376,26.221665206207277,25.532669021484374,27.581253206207275,22.953918021484377C27.784439206207274,22.565979021484374,28.320145206207275,22.521652021484375,28.597229206207274,22.857849021484373C30.189560206207275,24.786377021484373,31.889023206207277,26.367615021484376,34.77443020620727,26.759247021484374C35.195603206207274,26.774017021484376,35.58352720620728,26.803574021484376,35.91603120620728,26.851608021484374C31.999863206207277,25.750641021484373,28.161270206207277,20.951492021484377,29.258545206207277,17.655991021484375C30.355820206207277,14.360488921484375,40.03536820620727,16.207748021484377,40.03536820620727,16.207748021484377C39.86172320620727,16.015625021484375,39.68069320620727,15.830902021484375,39.48858720620727,15.668350021484375C39.13391120620727,15.365402221484375,39.29646320620728,14.796447721484375,39.747191206207276,14.700393721484375C39.747191206207276,14.700393721484375,39.747191206207276,14.700408921484375,39.747191206207276,14.700408921484375Z" fill="#A2DD9E" fill-opacity="1"/><path d="M17.99406452636719,29.799789160736083C16.81181352636719,29.799789160736083,15.677612326367187,29.179107160736084,15.042160026367187,28.144653160736084C14.495376626367188,27.254287160736084,14.074203526367189,26.341735160736086,13.797103926367187,25.432891160736084C13.682586626367186,25.063445160736084,13.590225226367188,24.686614160736085,13.520019526367188,24.313461160736082C13.407791126367187,23.711547160736085,13.804779026367187,23.132613160736085,14.406707726367188,23.020385160736083C15.008621226367188,22.908172160736083,15.587554926367188,23.305145160736085,15.699783326367188,23.907073160736083C15.755203226367188,24.195236160736084,15.825393726367187,24.490798160736084,15.914062526367188,24.778961160736085C16.13941952636719,25.510482160736085,16.483016926367185,26.253082160736085,16.93373152636719,26.988281160736083C17.20344552636719,27.427917160736083,17.716964526367185,27.660674160736082,18.208343526367187,27.564620160736084C24.064117526367188,26.452575160736085,25.42369052636719,24.660751160736083,26.598525526367187,22.436660160736086C26.864562526367187,21.928314160736083,27.368667526367187,21.588073160736084,27.939620526367186,21.531509160736086C28.515548526367187,21.471740160736083,29.083053526367188,21.704849160736085,29.450683526367186,22.152191160736084C31.549148526367187,24.697692160736086,33.78431652636719,26.689025160736083,39.894988526367186,25.270339160736086C40.38635252636719,25.155807160736085,40.763183526367186,24.749420160736083,40.82969652636719,24.261749160736084C41.28411852636719,20.944091160736082,40.497192526367186,17.973708160736084,38.775558526367185,16.510650160736084C38.296752526367186,16.104171160736083,38.09046952636719,15.460967160736084,38.243545526367186,14.851837160736084C38.39550752636718,14.230834460736084,38.889236526367185,13.751433860736084,39.514450526367185,13.617873660736084C40.833389526367185,13.326003560736083,42.085815526367185,12.642516660736083,42.95402552636719,11.737365760736084C43.375198526367186,11.297729460736084,43.375198526367186,10.580993660736084,42.95402552636719,10.108093260736084C41.33583052636719,8.290405260736083,38.44674652636719,6.384048260736083,35.202941526367184,6.480102260736084C32.287994526367186,6.568771160736084,29.531906526367187,8.238677760736085,27.012283526367188,11.445495560736084C26.712722526367187,11.825256360736084,26.26795952636719,12.062362660736085,25.785705526367188,12.099426260736085C25.299179526367187,12.135696460736085,24.81964152636719,11.966918960736084,24.463073526367186,11.633926360736083C23.325180526367188,10.566223160736083,19.298171526367188,7.122955060736084,15.215728726367187,7.706664760736084C12.832778926367187,8.046569560736085,10.730606126367189,9.731262160736083,8.972030626367188,12.712707060736085C8.643219026367188,13.274276260736084,8.783615126367188,13.972533660736085,9.304534926367188,14.345687160736084C11.306945826367187,15.775451160736084,14.044570926367188,16.137512160736083,15.496505726367188,16.226180160736085C16.07653812636719,16.26312216073608,16.597457526367187,16.606719160736084,16.85607952636719,17.123947160736083C17.114700526367187,17.641174160736085,17.077743526367186,18.265533160736084,16.76002452636719,18.749511160736084C16.501403826367188,19.141143160736085,16.279739426367186,19.56231616073608,16.102401726367187,20.00195216073608C15.991989126367187,20.274597160736086,15.777633626367187,20.492111160736084,15.506607026367188,20.606475160736085C15.235595726367187,20.720840160736085,14.930221526367188,20.722656160736083,14.657852126367187,20.611541160736085C14.385208126367187,20.501129160736085,14.167709326367188,20.286773160736082,14.053329426367188,20.015746160736086C13.938964826367187,19.744750160736082,13.937149026367187,19.439361160736084,14.048263526367187,19.166992160736086C14.159103426367189,18.889907160736083,14.284713726367187,18.620208160736084,14.425109826367187,18.354217160736084C12.648056026367186,18.154708160736085,10.069290126367187,17.611617160736085,8.015152026367188,16.144897160736086C6.552139250367188,15.103057160736084,6.1457366663671875,13.141265360736083,7.061965916367187,11.582199060736084C9.178924526367187,7.991149660736085,11.816787726367188,5.9480894607360835,14.901657126367187,5.508453260736084C19.490219526367188,4.854522590736084,23.683456526367188,7.957900760736084,25.600906526367186,9.668457060736085C28.464141526367186,6.1882322607360845,31.670959526367188,4.370544300736084,35.140075526367184,4.263397084536084C39.13751252636719,4.141479360736084,42.66574052636719,6.443145560736085,44.61645552636719,8.633987460736083C45.80238352636719,9.967712360736083,45.77651952636719,12.003372160736085,44.561035526367185,13.270583660736085C43.59307852636719,14.279174160736083,42.329559526367184,15.062408160736084,40.93304452636719,15.524230160736083C42.754425526367186,17.596832160736085,43.53765852636719,20.888641160736086,43.03521752636719,24.560943160736084C42.843093526367184,25.957458160736085,41.78646852636719,27.110153160736083,40.40472452636719,27.431579160736085C33.54035952636718,29.020202160736083,30.525634526367188,26.773956160736084,28.216567526367186,24.110229160736083C26.605911526367187,26.836837160736085,24.348587526367186,28.650817160736086,18.622116526367186,29.740692160736085C18.411544526367187,29.781341160736083,18.200942526367186,29.799804160736084,17.99406452636719,29.799804160736084C17.99406452636719,29.799804160736084,17.99406452636719,29.799789160736083,17.99406452636719,29.799789160736083Z" fill="#000F04" fill-opacity="1"/><path d="M31.660569181591796,1.1083488464355469C31.660569181591796,1.1083488464355469,26.813400981591798,6.5983543464355465,26.078202011291797,12.915942846435547C26.033859971591795,13.784145846435546,27.404526481591798,15.202830846435546,30.197556481591796,14.197932846435547C31.2948465815918,13.787845846435546,31.113816281591795,12.321132846435546,31.113816281591795,11.131496846435548C31.113816281591795,9.941875446435548,33.4930581815918,3.062709846435547,34.68266388159179,1.8324851964355469C33.722092581591795,1.108364105224547,31.660569181591796,1.108364105224547,31.660569181591796,1.108364105224547C31.660569181591796,1.108364105224547,31.660569181591796,1.1083488464355469,31.660569181591796,1.1083488464355469Z" fill="#A2DD9E" fill-opacity="1"/><path d="M31.858016690429686,15.653549C30.709029890429687,15.653549,29.94795219042969,15.254547,29.523086390429686,14.940514C28.795303200429686,14.401115,28.388870090429688,13.621574,28.425826877129687,12.856819C28.425826877129687,12.834648,28.429519503829688,12.808792,28.433212131229688,12.786621C29.197982610429687,6.2030716,34.07838439042969,0.60958862,34.28529359042969,0.37313843C34.49586489042969,0.13300323,34.798782390429686,0,35.116531390429685,0C35.522903490429684,0,37.61030579042969,0.044334412,38.80732769042969,0.94948578C39.062270690429685,1.1416016,39.22111469042969,1.4334641,39.24330169042969,1.7474976C39.26545669042969,2.0615311,39.15461769042969,2.3755646,38.93293769042969,2.6046143C37.99085999042968,3.5762711,35.70396419042969,10.093338,35.674392690429684,11.135223C35.674392690429684,11.271919,35.67811589042969,11.416008,35.67811589042969,11.563782C35.700271590429686,12.771881,35.733535790429684,14.600662,34.03773499042968,15.236115C33.19911189042969,15.539062,32.471267690429684,15.653595,31.85798619042969,15.653595C31.85798619042969,15.653595,31.858016690429686,15.653549,31.858016690429686,15.653549ZM30.646224690429687,12.94548C30.675796290429687,13.008293,30.771835090429686,13.137596,30.98609899042969,13.252129C31.292739590429687,13.414688,32.00209019042969,13.614189,33.27302549042969,13.156067C33.48728939042969,13.074791,33.47248839042969,12.11792,33.461440990429686,11.604385C33.45771789042969,11.445518,33.454055790429685,11.286652,33.454055790429685,11.131485C33.454055790429685,10.000969,35.07594299042969,4.9690704,36.47242739042969,2.3607407C36.187972990429685,2.3053207,35.88871769042969,2.264679,35.61164859042969,2.2425156C34.55128479042969,3.56884,31.252120690429688,8.0317917,30.646224690429687,12.945442C30.646224690429687,12.945442,30.646224690429687,12.94548,30.646224690429687,12.94548ZM46.55842569042969,51.368286C46.04774469042969,51.368752,45.60285969042969,51.020226,45.48103369042968,50.524277C45.35926769042969,50.028328,45.59208669042969,49.513344,46.04487569042969,49.277199C51.00660669042969,46.691048,53.840286690429686,42.749031,54.46833769042969,37.565651C54.54225169042969,36.959755,55.09272769042968,36.523796,55.70228569042969,36.597687C56.30818169042969,36.671577,56.744155690429686,37.222054,56.670272690429684,37.831657C56.175185690429686,41.925156,54.10627769042969,47.574013,47.071945690429686,51.242668C46.90568569042969,51.327644,46.73207069042969,51.368286,46.55842569042969,51.368286C46.55842569042969,51.368286,46.55842569042969,51.368286,46.55842569042969,51.368286ZM55.48799169042969,33.586647C54.94490069042969,33.586647,54.47199969042968,33.187645,54.39442469042969,32.637161C54.39442469042969,32.637161,54.16535969042969,31.055916,54.16535969042969,31.055916C54.07765169042969,30.449913,54.49775669042968,29.88752,55.10377469042969,29.799782C55.70979269042969,29.712044,56.27217069042969,30.132179,56.35987869042969,30.73819C56.35987869042969,30.73819,56.58894369042969,32.319435,56.58894369042969,32.319435C56.63514669042969,32.638496,56.54017669042969,32.961861,56.328750690429686,33.205223C56.11729469042969,33.448586,55.81037869042969,33.58783,55.48799169042969,33.586647C55.48799169042969,33.586647,55.48799169042969,33.586647,55.48799169042969,33.586647Z" fill="#000F04" fill-opacity="1"/></svg>