<svg xmlns="http://www.w3.org/2000/svg" xmlns:xlink="http://www.w3.org/1999/xlink" fill="none" version="1.1" width="26.755386352539062" height="18.545623779296875" viewBox="0 0 26.755386352539062 18.545623779296875"><path d="M1.160141,2.3202667C1.160141,2.3202667,25.595261,2.3202667,25.595261,2.3202667C26.233612,2.3202667,26.755386,1.7985229,26.755386,1.1601562C26.755386,0.52180481,26.239182,0,25.595276,0C25.595276,0,1.160141,0,1.160141,0C0.52177429,0,0,0.52180481,0,1.160141C0,1.7985229,0.52180481,2.3202667,1.1601105,2.3202667C1.1601105,2.3202667,1.160141,2.3202667,1.160141,2.3202667ZM25.595261,8.1154175C25.595261,8.1154175,1.1601715,8.1154175,1.1601715,8.1154175C0.52180481,8.1154175,0.000030517578,8.6372375,0.000030517578,9.275589C0.000030517578,9.9139404,0.52183533,10.435715,1.160141,10.435715C1.160141,10.435715,25.595261,10.435715,25.595261,10.435715C26.233612,10.435715,26.755386,9.9138947,26.755386,9.275589C26.755386,8.6371918,26.233597,8.115448,25.595276,8.115448C25.595276,8.115448,25.595261,8.1154175,25.595261,8.1154175ZM25.595261,16.225311C25.595261,16.225311,1.1601715,16.225311,1.1601715,16.225311C0.52180481,16.225311,0.000030517578,16.741516,0.000030517578,17.385422C0.000030517578,18.029312,0.52183533,18.545624,1.160141,18.545624C1.160141,18.545624,25.595261,18.545624,25.595261,18.545624C26.233612,18.545624,26.755386,18.029343,26.755386,17.385468C26.755386,16.741577,26.233597,16.225311,25.595276,16.225311C25.595276,16.225311,25.595261,16.225311,25.595261,16.225311Z" fill="#FFFFFF" fill-opacity="1"/></svg>