<svg xmlns="http://www.w3.org/2000/svg" xmlns:xlink="http://www.w3.org/1999/xlink" fill="none" version="1.1" width="128.53741455078125" height="150.53036499023438" viewBox="0 0 128.53741455078125 150.53036499023438"><path d="M4.955511093139648,63.38927110473633C4.955526351928649,96.15639910473632,31.518560093139648,122.71940110473633,64.28569609313965,122.71940110473633C97.05281609313965,122.71940110473633,123.61583109313965,96.15639910473632,123.61583109313965,63.38927110473633C123.61583109313965,30.62211410473633,97.05281609313965,4.059101104736332,64.28566509313964,4.059101104736332C31.51853009313965,4.059101104736332,4.955511093139648,30.622118104736327,4.955511093139648,63.38927110473633C4.955511093139648,63.38927110473633,4.955511093139648,63.38927110473633,4.955511093139648,63.38927110473633Z" fill="#FFBAB0" fill-opacity="1"/><path d="M64.26867907336427,125.42543839248657C30.009251073364258,125.41609839248657,2.2431899071642576,97.63742339248657,2.2494231226318577,63.37800039248657C2.249415493237358,29.129835392486573,30.020527073364256,1.3562130927865723,64.27995507336425,1.3530983924865723C98.54503107336426,1.3530983924865723,126.31865207336426,29.12419339248657,126.32176207336425,63.38363139248657C126.28758207336426,97.63859839248657,98.52366807336426,125.39746839248657,64.26867907336427,125.42543839248657C64.26867907336427,125.42543839248657,64.26867907336427,125.42543839248657,64.26867907336427,125.42543839248657ZM64.26867907336427,6.765238292486572C32.98670607336426,6.774585292486572,7.6352185733642575,32.14121839248657,7.644564673364258,63.42320539248657C7.6539182733642575,94.70518739248658,33.02056507336425,120.05666839248657,64.30253807336426,120.04732839248658C95.58453607336426,120.03797839248658,120.93602207336426,94.67133539248657,120.92665207336425,63.389345392486575C120.88934207336426,32.11896339248658,95.53908007336426,6.783865492486572,64.26867907336427,6.765240192486572C64.26867907336427,6.765240192486572,64.26867907336427,6.765238292486572,64.26867907336427,6.765238292486572Z" fill="#783741" fill-opacity="1"/><path d="M46.44251965130615,18.75645467248535C42.937910651306154,10.531974772485352,34.127915651306154,5.911289172485351,25.36947665130615,7.704002412485352C16.611023451306153,9.496715572485352,10.325043155806153,17.20730587248535,10.333740665738352,26.14734667248535C10.333740665738352,31.33957667248535,14.866364051306153,38.831962672485346,18.265839051306152,42.231401672485354C26.299423651306153,32.794067672485355,34.41754265130615,22.76477067248535,46.442534651306154,18.756431672485352C46.442534651306154,18.756431672485352,46.44251965130615,18.75645467248535,46.44251965130615,18.75645467248535Z" fill="#FFFFFF" fill-opacity="1"/><path d="M18.265815987731933,46.273570771728515C17.192649987731933,46.27923177172852,16.162422187731934,45.85251277172851,15.407577487731933,45.08967977172851C11.619094887731933,41.30120077172852,6.291564783523883,32.92935777172852,6.291564783523883,26.147317771728517C6.288719019431934,15.295911771728516,13.918533287731933,5.939308171728515,24.548498987731932,3.7583693517285157C35.17848898773194,1.5774382717285156,45.87616598773193,7.173839571728516,50.14639998773193,17.149701771728516C50.593115987731935,18.186483771728515,50.58589798773193,19.362832771728517,50.126501987731935,20.394052771728514C49.66713598773193,21.425275771728515,48.79741598773193,22.217393771728517,47.727880987731936,22.578717771728517C37.309591987731935,26.062757771728517,29.749517987731934,34.97580577172852,22.358602987731935,43.567451771728514C22.358602987731935,43.567451771728514,21.276191987731934,44.85281777172852,21.276191987731934,44.85281777172852C20.541541987731932,45.713519771728514,19.480964987731934,46.228488771728514,18.350257987731933,46.273494771728515C18.350257987731933,46.273494771728515,18.265815987731933,46.273570771728515,18.265815987731933,46.273570771728515C18.265815987731933,46.273570771728515,18.265815987731933,46.273570771728515,18.265815987731933,46.273570771728515ZM29.140768987731935,11.382453871728515C20.996787987731935,11.401084871728516,14.402076687731933,18.003381771728513,14.392761187731933,26.147363771728514C14.392761187731933,28.718114771728516,16.185539287731935,32.69261377172852,18.333442987731935,35.88914077172851C24.726492987731934,28.447507771728514,31.474691987731934,21.124227771728517,40.55692198773193,16.777658771728518C37.75273798773193,13.358792771728515,33.562521987731934,11.378526671728515,29.140768987731935,11.382469171728516C29.140768987731935,11.382469171728516,29.140768987731935,11.382453871728515,29.140768987731935,11.382453871728515Z" fill="#783741" fill-opacity="1"/><path d="M82.1286621093725,18.75645137466431C85.6460571390625,10.554260474664307,94.4434200390625,5.953483774664306,103.18652303906251,7.743900504664307C111.9296260390625,9.534309674664307,118.2105100390625,17.22282457466431,118.2205810390625,26.147343374664306C117.7915040390625,31.980160374664308,115.4080810390625,37.497860374664306,111.4553830390625,41.808596374664305C103.4387210390625,32.37125837466431,94.15374803906249,22.764767374664306,82.1285400390625,18.756435374664306C82.1285400390625,18.756435374664306,82.1286621093725,18.75645137466431,82.1286621093725,18.75645137466431Z" fill="#FFFFFF" fill-opacity="1"/><path d="M111.48917031347656,45.8507730102539C111.48917031347656,45.8507730102539,111.32004131347657,45.8507730102539,111.32004131347657,45.8507730102539C110.19473631347657,45.80315801025391,109.14047431347656,45.2882420102539,108.41104331347657,44.430099010253905C100.58041531347656,35.26334801025391,91.83645931347657,26.265690010253905,80.84323381347656,22.578693010253907C79.77060211347656,22.220943010253905,78.89682281347656,21.430294010253906,78.43399322347656,20.398655010253908C77.97128570347657,19.367008010253905,77.96176421347656,18.188686010253907,78.40768706347656,17.149685010253904C82.69229411347656,7.187980610253906,93.38455531347657,1.6056272102539062,104.00735631347656,3.784265610253906C114.63022231347657,5.962900210253906,122.26205831347656,15.303303010253906,122.27951431347657,26.147289010253907C122.27951431347657,32.777111010253904,118.23740031347657,40.75995601025391,114.34732431347656,44.751411010253904C113.57565731347657,45.478558010253906,112.54922831347656,45.873363010253904,111.48910931347656,45.850750010253904C111.48910931347656,45.850750010253904,111.48917031347656,45.8507730102539,111.48917031347656,45.8507730102539ZM88.03110031347656,16.743755010253906C97.11331331347657,20.955051010253907,104.57180931347656,27.923122010253906,111.23544731347656,35.3478740102539C112.93143131347657,32.55125001025391,113.93991431347656,29.392326010253907,114.17825731347656,26.130390010253905C114.17068831347656,19.905994010253906,110.26053231347656,14.354851010253906,104.40213231347656,12.251754810253907C98.54379431347657,10.148658710253907,91.99582231347657,11.945360210253906,88.03110031347656,16.743759010253907C88.03110031347656,16.743759010253907,88.03110031347656,16.743755010253906,88.03110031347656,16.743755010253906Z" fill="#783741" fill-opacity="1"/><path d="M48.962615591796876,124.1400374663086C48.962615591796876,124.1400374663086,26.553100585796876,146.5495224663086,26.553100585796876,146.5495224663086C26.553100585796876,146.5495224663086,26.519256591796875,110.5930404663086,26.519256591796875,110.5930404663086C26.519256591796875,110.5930404663086,48.962615591796876,124.14009846630859,48.962615591796876,124.14009846630859C48.962615591796876,124.14009846630859,48.962615591796876,124.1400374663086,48.962615591796876,124.1400374663086Z" fill="#FFBAB0" fill-opacity="1"/><path d="M26.55308529296875,150.5240630209961C24.32064819296875,150.5240630209961,22.51092529296878,148.7143710209961,22.51092529296878,146.4818880209961C22.51092529296878,146.4818880209961,22.51092529296878,110.52540712099609,22.51092529296878,110.52540712099609C22.53689575196875,109.07850762099609,23.33436584296875,107.75587572099609,24.60182189296875,107.0576335809961C25.86927799296875,106.3593303609961,27.413314792968748,106.3917400209961,28.65026859296875,107.1427776209961C28.65026859296875,107.1427776209961,51.093551292968755,120.6730510209961,51.093551292968755,120.6730510209961C52.14860529296875,121.3244790209961,52.85148629296875,122.4192060209961,53.004715292968754,123.6497360209961C53.16749529296875,124.89460902099609,52.742538292968746,126.1445480209961,51.85462929296875,127.03224402099609C51.85462929296875,127.03224402099609,29.411376992968748,149.4078520209961,29.411376992968748,149.4078520209961C28.643386792968748,150.1427150209961,27.61587529296875,150.5440220209961,26.553115892968748,150.5241850209961C26.553115892968748,150.5241850209961,26.55308529296875,150.5240630209961,26.55308529296875,150.5240630209961ZM30.57832339296875,117.69624402099609C30.57832339296875,117.69624402099609,30.57832339296875,136.7908500209961,30.57832339296875,136.7908500209961C30.57832339296875,136.7908500209961,42.417297292968755,124.95179902099609,42.417297292968755,124.95179902099609C42.417297292968755,124.95179902099609,30.57832339296875,117.69624402099609,30.57832339296875,117.69624402099609C30.57832339296875,117.69624402099609,30.57832339296875,117.69624402099609,30.57832339296875,117.69624402099609Z" fill="#783741" fill-opacity="1"/><path d="M80.96157836914062,124.1400374663086C80.96157836914062,124.1400374663086,103.35415636914063,146.5495224663086,103.35415636914063,146.5495224663086C103.35415636914063,146.5495224663086,103.38803136914062,110.5930404663086,103.38803136914062,110.5930404663086C103.38803136914062,110.5930404663086,80.96157836914062,124.14009846630859,80.96157836914062,124.14009846630859C80.96157836914062,124.14009846630859,80.96157836914062,124.1400374663086,80.96157836914062,124.1400374663086Z" fill="#FFBAB0" fill-opacity="1"/><path d="M103.35415455712891,150.52418558593752C102.28164455712891,150.5260165859375,101.2528365571289,150.0999295859375,100.4958785571289,149.3401645859375C100.4958785571289,149.3401645859375,78.1034221571289,126.9984305859375,78.1034221571289,126.9984305859375C77.2212809871289,126.1206835859375,76.7925090171289,124.8856375859375,76.94119066012891,123.6501025859375C77.08981126712891,122.4145675859375,77.7992839171289,121.3164845859375,78.8644695571289,120.6730515859375C78.8644695571289,120.6730515859375,101.30782855712891,107.1427783359375,101.30782855712891,107.1427783359375C102.5421425571289,106.3891772959375,104.08602755712892,106.3556689959375,105.35183555712891,107.0550708159375C106.61782655712891,107.7544116859375,107.41122255712891,109.0792407859375,107.4302655571289,110.5254077859375C107.4302655571289,110.5254077859375,107.4302655571289,146.5495755859375,107.4302655571289,146.5495755859375C107.41445755712891,148.2027735859375,106.39767255712891,149.6811675859375,104.8594645571289,150.2873685859375C104.37655455712891,150.4578395859375,103.8662395571289,150.5381625859375,103.35421555712891,150.52418558593752C103.35421555712891,150.52418558593752,103.35415455712891,150.52418558593752,103.35415455712891,150.52418558593752ZM87.47305155712891,124.9350145859375C87.47305155712891,124.9350145859375,99.31204055712891,136.7739425859375,99.31204055712891,136.7739425859375C99.31204055712891,136.7739425859375,99.31204055712891,117.7639335859375,99.31204055712891,117.7639335859375C99.31204055712891,117.7639335859375,87.47305155712891,124.9350145859375,87.47305155712891,124.9350145859375C87.47305155712891,124.9350145859375,87.47305155712891,124.9350145859375,87.47305155712891,124.9350145859375Z" fill="#783741" fill-opacity="1"/><path d="M4.955511093139648,74.17967600756836C4.955526351928649,106.94681200756835,31.518560093139648,133.50983400756837,64.28569609313965,133.50983400756837C97.05281609313965,133.50983400756837,123.61583109313965,106.94681200756835,123.61583109313965,74.17967600756836C123.61583109313965,41.41251800756836,97.05281609313965,14.84951400756836,64.28566509313964,14.84951400756836C31.51853009313965,14.84951400756836,4.955511093139648,41.412533007568356,4.955511093139648,74.17969100756835C4.955511093139648,74.17969100756835,4.955511093139648,74.17967600756836,4.955511093139648,74.17967600756836Z" fill="#FFBAB0" fill-opacity="1"/><path d="M64.26867907336427,136.21584220825196C30.009251073364258,136.20650220825195,2.2431899071642576,108.42778420825195,2.2494231226318577,74.16838420825195C2.249407863843258,39.92020820825195,30.020527073364256,12.146595001251953,64.27997007336427,12.143482208251953C98.54503107336426,12.143482208251953,126.31865207336426,39.914577208251956,126.32176207336425,74.17403020825196C126.28758207336426,108.42900420825195,98.52366807336426,136.18785220825197,64.26867907336427,136.21584220825196C64.26867907336427,136.21584220825196,64.26867907336427,136.21584220825196,64.26867907336427,136.21584220825196ZM64.26867907336427,17.538616208251952C32.988903073364256,17.547962208251953,7.638339073364258,42.911144208251955,7.644564673364258,74.19093720825195C7.644564673364258,105.45946120825195,33.000194073364256,130.81758220825196,64.27998507336426,130.82070220825196C95.56541607336426,130.82070220825196,120.92354207336426,105.46507620825196,120.92667207336426,74.18529120825195C120.90179207336426,42.906101208251954,95.54788407336426,17.55726240825195,64.26867907336427,17.538623808251952C64.26867907336427,17.538623808251952,64.26867907336427,17.538616208251952,64.26867907336427,17.538616208251952Z" fill="#783741" fill-opacity="1"/><path d="M103.35416,150.52412C102.31169,150.52533,101.31009,150.11864,100.56357,149.39098C100.56357,149.39098,85.663345,135.08273,85.663345,135.08273C78.89801,137.24132,71.825699,138.28105,64.725357,138.16087C57.874725,138.35953,51.033142,137.52713,44.430023,135.6916C44.430023,135.6916,29.208473,149.47554,29.208473,149.47554C28.02449,150.55475,26.31485,150.83284,24.849838,150.18459C23.384819,149.5363,22.440903,148.084,22.443336,146.48196C22.443336,146.48196,22.443352,123.61584,22.443352,123.61584C8.4787445,110.92718,0.36027527,93.044533,0,74.17968C0,74.17968,0,63.389297,0,63.389297C0.22975159,53.062401,3.0254211,42.954975,8.1350708,33.977859C7.0106506,31.514605,6.3841476,28.853415,6.2915649,26.147243C6.2985153,18.364744,10.263275,11.120112,16.814529,6.9191155C23.365761,2.7181196,31.603905,2.1376121,38.679558,5.3783865C54.99707,-1.7927947,73.573959,-1.7927947,89.89151,5.3783817C96.967178,2.1375451,105.20537,2.7180345,111.75668,6.9190712C118.30795,11.120105,122.27271,18.364813,122.2796,26.147362C122.1945,28.953358,121.62224,31.7232,120.58833,34.333157C125.57469,43.222557,128.30414,53.199509,128.5374,63.389267C128.5374,63.389267,128.53741,74.179634,128.53741,74.179634C128.20061,92.521683,120.59683,109.98,107.39647,122.71946C107.39647,122.71946,107.39647,146.54959,107.39647,146.54959C107.38644,148.17049,106.41692,149.63145,104.92719,150.27039C104.42528,150.45981,103.89034,150.5461,103.35432,150.52411C103.35432,150.52411,103.35416,150.52412,103.35416,150.52412ZM29.1408,11.382436C20.996834,11.401064,14.4021,18.003363,14.392807,26.147346C14.579239,28.32147,15.224876,30.431292,16.287041,32.337437C16.880997,33.539513,16.84301,34.957352,16.185547,36.125904C10.807274,45.664734,8.0842743,54.746857,8.0842743,63.389271C8.0842743,63.389271,8.0842743,74.179634,8.0842743,74.179634C8.3917007,91.344193,16.046272,107.55251,29.106834,118.69424C30.013824,119.46178,30.544235,120.5843,30.561333,121.77235C30.561333,121.77235,30.561317,137.36597,30.561317,137.36597C30.561317,137.36597,40.709,128.11465,40.709,128.11465C41.827744,127.08537,43.432457,126.77753,44.852654,127.31975C49.926483,129.23088,56.065826,130.09344,64.657516,130.09344C71.621429,130.28304,78.556992,129.13477,85.08815,126.71088C86.56282,126.13448,88.237839,126.46421,89.384018,127.55652C89.384018,127.55652,99.328918,136.9938,99.328918,136.9938C99.328918,136.9938,99.328918,120.92665,99.328918,120.92665C99.330032,119.76284,99.828537,118.655,100.69887,117.88234C113.02618,106.65898,120.17896,90.848305,120.46989,74.179695C120.46989,74.179695,120.46992,63.389324,120.46992,63.389324C120.46992,54.932919,117.83154,45.901409,112.62238,36.548698C112.01151,35.438782,111.94907,34.108536,112.45326,32.946266C113.4507,30.822342,114.02512,28.524567,114.14456,26.181137C114.15051,20.902231,111.33452,16.022715,106.76083,13.386742C102.18715,10.750772,96.553391,10.760393,91.988724,13.411972C90.831833,14.06303,89.429688,14.107241,88.234055,13.530356C73.094254,6.2680664,55.476883,6.2680664,40.337059,13.530367C39.128548,14.117846,37.706062,14.060689,36.548592,13.378141C34.297989,12.072542,31.742661,11.384118,29.140785,11.382432C29.140785,11.382432,29.1408,11.382436,29.1408,11.382436Z" fill="#783741" fill-opacity="1"/><path d="M19.78792572021472,74.17967565063476C19.787864685058718,98.75510065063476,39.71015120263672,118.67737165063477,64.28554520263671,118.67737165063477C88.86089320263672,118.67737165063477,108.78319520263672,98.75510065063476,108.78319520263672,74.17967565063476C108.78325620263672,49.604282650634765,88.86092420263672,29.682010650634766,64.28557620263672,29.682010650634766C39.710182202636716,29.682010650634766,19.78789520263672,49.604282650634765,19.78789520263672,74.17967565063476C19.78789520263672,74.17967565063476,19.78792572021472,74.17967565063476,19.78792572021472,74.17967565063476Z" fill="#FFFFFF" fill-opacity="1"/><path d="M64.26867699414063,121.36638303637696C38.196670994140625,121.36641303637695,17.061981545040624,100.22917603637696,17.065094337943975,74.15716903637696C17.065094337943975,48.09071703637696,38.202285994140624,26.956058842576955,64.27433799414062,26.959156376818644C90.34071399414063,26.959156376818644,111.47538799414062,48.096378036376954,111.47230499414063,74.16840003637695C111.44126899414063,100.22444503637695,90.32472199414063,121.33842803637695,64.26867699414063,121.36641303637695C64.26867699414063,121.36641303637695,64.26867699414063,121.36638303637696,64.26867699414063,121.36638303637696ZM64.26867699414063,32.371189636376954C41.18069499414062,32.38052793637695,22.470871494140624,51.102955036376954,22.477112294140625,74.19095203637696C22.483322594140624,97.27893403637695,41.20323199414062,115.99123003637695,64.29121399414063,115.98811703637695C87.37358099414062,115.98811703637695,106.09092699414063,97.27328903637695,106.09403999414063,74.18530703637695C106.06916799414063,51.09790403637695,87.35606399414063,32.389851136376954,64.26867699414063,32.371189636376954C64.26867699414063,32.371189636376954,64.26867699414063,32.371189636376954,64.26867699414063,32.371189636376954Z" fill="#783741" fill-opacity="1"/><path d="M88.94430536889648,76.86888467016601C88.94430536889648,76.86888467016601,64.26861546889648,76.86888467016601,64.26861546889648,76.86888467016601C62.78066996889648,76.86888467016601,61.57186868189648,75.66756067016601,61.56262185519648,74.17967567016602C61.56262185519648,74.17967567016602,61.56262185519648,47.11922077016602,61.56262185519648,47.11922077016602C61.482208035896484,46.10448077016601,61.97799661889648,45.13048172016602,62.84585546889648,44.59843826016601C63.71368386889648,44.06639481016602,64.80670146889648,44.06639481016602,65.67446896889649,44.59843826016601C66.54235836889649,45.130451200166014,67.03814696889648,46.10448077016601,66.95779416889648,47.11922077016602C66.95779416889648,47.11922077016602,66.95779416889648,71.47365167016602,66.95779416889648,71.47365167016602C66.95779416889648,71.47365167016602,88.94442736889648,71.47365167016602,88.94442736889648,71.47365167016602C90.35165436889648,71.58513267016602,91.43679836889649,72.75960167016602,91.43679836889649,74.17122267016602C91.43679836889649,75.58284367016601,90.35165436889648,76.757282670166,88.94442736889648,76.86882367016602C88.94442736889648,76.86882367016602,88.94430536889648,76.86888467016601,88.94430536889648,76.86888467016601Z" fill="#783741" fill-opacity="1"/><path d="M58.1124267578125,74.17964931474609C58.1124267578125,77.58898161474609,60.8763122578125,80.3528366147461,64.2856445578125,80.3528366147461C67.6949767578125,80.3528366147461,70.4588627578125,77.58898161474609,70.4588627578125,74.17964931474609C70.4588627578125,70.77031711474609,67.6949767578125,68.0064926147461,64.2856445578125,68.0064926147461C60.8763122578125,68.0064926147461,58.1124267578125,70.77031711474609,58.1124267578125,74.17964931474609C58.1124267578125,74.17964931474609,58.1124267578125,74.17964931474609,58.1124267578125,74.17964931474609Z" fill="#FFBAB0" fill-opacity="1"/><path d="M64.2687072703125,83.04195366552734C59.3741454703125,83.04195366552734,55.4063720703125,79.07414966552734,55.4063720703125,74.17971036552734C55.4063720703125,69.28514866552734,59.3741454703125,65.31734466552734,64.2687072703125,65.31734466552734C69.16320807031249,65.31734466552734,73.1309810703125,69.28514866552734,73.1309810703125,74.17964936552734C73.1217350703125,79.07033566552734,69.1593630703125,83.03270766552734,64.2687072703125,83.04195366552734C64.2687072703125,83.04195366552734,64.2687072703125,83.04195366552734,64.2687072703125,83.04195366552734ZM64.2687072703125,70.71251676552734C62.4122619703125,70.75896456552735,60.9403991703125,72.29332736552735,60.9711608703125,74.15004726552735C61.0019225703125,76.00679766552734,62.5237731703125,77.49156966552735,64.3807067703125,77.47646366552735C66.2376710703125,77.46138766552734,67.7352290703125,75.95214066552734,67.7358090703125,74.09508516552734C67.6899110703125,72.21334076552735,66.1509700703125,70.71196746552734,64.2687072703125,70.71251676552734C64.2687072703125,70.71251676552734,64.2687072703125,70.71251676552734,64.2687072703125,70.71251676552734Z" fill="#783741" fill-opacity="1"/><path d="M66.75494550134277,38.40913633618164C66.76419250134278,39.772768536181644,65.66626150134277,40.88579033618164,64.30255350134277,40.89511343618164C62.938905501342774,40.90443663618164,61.825899501342775,39.80655143618164,61.816499501342776,38.44287343618164C61.807130501342776,37.07918013618164,62.905031501342776,35.96609726638164,64.26864850134277,35.95669785211064C65.63244850134276,35.94732895588164,66.74554650134277,37.045275136181644,66.75485450134278,38.40906003618164C66.75485450134278,38.40906003618164,66.75494550134277,38.40913633618164,66.75494550134277,38.40913633618164ZM102.50854350134277,74.17964533618164C102.50854350134277,75.54341533618164,101.40301350134277,76.64891433618163,100.03927450134277,76.64891433618163C98.67553550134278,76.64891433618163,97.57000550134278,75.54341533618164,97.57000550134278,74.17964533618164C97.57000550134278,72.81593733618163,98.67553550134278,71.71037633618164,100.03927450134277,71.71037633618164C100.69552450134277,71.70582933618164,101.32626150134277,71.96449633618164,101.79031150134277,72.42857733618163C102.25439250134278,72.89262733618165,102.51305950134277,73.52336533618164,102.50854350134277,74.17964533618164C102.50854350134277,74.17964533618164,102.50854350134277,74.17964533618164,102.50854350134277,74.17964533618164ZM66.75494550134277,109.93327733618165C66.75494550134277,111.29484933618164,65.65283350134277,112.39946333618164,64.29129250134278,112.40257633618164C62.929811501342776,112.40571933618165,61.82266450134277,111.30614133618164,61.81640850134277,109.94466033618164C61.81018250134277,108.58314933618163,62.90716750134278,107.47346833618164,64.26864850134277,107.46410033618164C65.63525550134278,107.46410033618164,66.74563750134277,108.56694433618163,66.75494550134277,109.93339933618164C66.75494550134277,109.93339933618164,66.75494550134277,109.93327733618165,66.75494550134277,109.93327733618165ZM30.984223401342774,74.17964533618164C30.984223401342774,75.17985933618164,30.380768801342775,76.08131833618164,29.456025101342775,76.46251333618164C28.531189901342774,76.84367733618164,27.467789501342775,76.62932233618164,26.762955601342775,75.91960533618163C26.058091082342774,75.20988833618165,25.851014061342774,74.14503833618164,26.238556791342774,73.22291933618163C26.626069011342775,72.30080033618164,27.531647601342772,71.70351033618164,28.531891801342773,71.71037633618164C29.185273201342774,71.71037633618164,29.811615901342773,71.97108833618164,30.272004101342773,72.43468133618164C30.732331301342775,72.89821233618164,30.988709401342774,73.52632533618164,30.984223401342774,74.17964533618164C30.984223401342774,74.17964533618164,30.984223401342774,74.17964533618164,30.984223401342774,74.17964533618164Z" fill="#783741" fill-opacity="1"/></svg>