<svg xmlns="http://www.w3.org/2000/svg" xmlns:xlink="http://www.w3.org/1999/xlink" fill="none" version="1.1" width="128" height="130.37237548828125" viewBox="0 0 128 130.37237548828125"><path d="M119.89072497512818,42.28903482321167C119.78767497512817,42.08375882321167,119.79941497512817,41.83952682321167,119.92176497512817,41.64511482321167C122.14860497512818,38.11514582321167,124.32889497512818,32.76198182321167,123.58402497512817,25.93475682321167C122.44343497512817,17.268832823211667,121.39597497512817,12.179461923211669,121.03129497512818,10.51927522321167C120.95457497512817,10.17695952321167,120.62528497512817,9.95294522321167,120.27866497512818,10.00723602321167C120.27866497512818,10.00723602321167,107.15809497512818,11.90022612321167,107.15809497512818,11.90022612321167C107.14255497512818,11.90022612321167,107.13480497512818,11.90022612321167,107.11930497512817,11.90797762321167C106.72358497512818,11.93902922321167,100.12836897512817,12.505359123211669,95.25568797512817,16.06637902321167C95.04618497512817,16.22154572321167,94.77463997512817,16.244815323211668,94.54963397512817,16.120700323211672C91.56617397512818,14.51832912321167,88.45119897512818,13.173862023211669,85.23875097512817,12.10193202321167C84.37746897512817,11.81488372321167,83.91968997512818,10.883914423211671,84.24557197512817,10.03825712321167C84.24557197512817,10.03825712321167,84.34644697512817,9.766726923211671,84.34644697512817,9.766726923211671C84.90510197512818,8.31593652321167,83.83434697512817,6.764300823211698,82.28254397512818,6.764300823211698C82.28254397512818,6.764300823211698,51.02129797512817,6.764300823211698,51.02129797512817,6.764300823211698C49.43845797512817,6.764300823211698,48.367702975128175,8.37024262321167,48.980663975128174,9.828784423211669C49.337581975128174,10.68994472321167,48.879787975128174,11.65971712321167,47.98749997512817,11.94676542321167C44.68272097512818,13.01489592321167,41.478740975128176,14.372668723211671,38.41282297512817,16.004306323211672C38.187801975128174,16.120685123211672,37.92400797512818,16.09741542321167,37.722270975128176,15.95776702321167C32.87285997512818,12.505359123211669,26.417308975128172,11.95453212321167,26.021602975128175,11.92349572321167C26.006084975128175,11.92349572321167,25.998317975128174,11.92349572321167,25.982814975128175,11.915744323211669C25.982814975128175,11.915744323211669,12.862178375128174,10.02266262321167,12.862178375128174,10.02266262321167C12.516261575128173,9.971545723211669,12.188960575128174,10.19421722321167,12.109538575128173,10.53468652321167C11.744868775128174,12.194964923211671,10.697383375128174,17.28433582321167,9.556804375128173,25.95019882321167C8.835216275128174,32.54465082321167,10.852565275128175,37.76593382321167,12.994060075128175,41.30368382321167C13.110454075128175,41.49765382321167,13.125987575128175,41.73813182321167,13.017344975128175,41.93985282321167C8.962489875128174,49.97861082321167,6.789455165128174,58.83432382321167,6.662685139128174,67.83677982321167C6.460933435128174,81.04121782321167,10.643077575128174,93.36127082321167,17.859019975128174,103.40811482321168C17.936579975128176,103.51672682321167,17.975398975128172,103.64087282321167,17.983149975128175,103.76501782321166C17.983149975128175,103.76501782321166,18.836649975128175,126.38018082321167,18.836649975128175,126.38018082321167C18.880778975128173,127.53563082321168,19.829524975128173,128.44994082321168,20.985896975128174,128.45165082321165C20.985896975128174,128.45165082321165,25.074932975128174,128.45165082321165,25.074932975128174,128.45165082321165C25.889644975128174,128.45165082321165,26.642269975128173,127.98613082321167,27.006938975128175,127.25682082321167C27.006938975128175,127.25682082321167,31.064922975128173,119.30469082321167,31.064922975128173,119.30469082321167C31.243389975128174,118.94782082321167,35.06859997512817,119.51416082321167,35.402248975128174,119.72364082321167C44.045833975128176,125.02245082321167,54.13265697512817,128.18779082321169,64.91773697512818,128.44383082321167C76.91326597512817,128.73088082321166,88.11735197512817,125.46471082321168,97.58341597512818,119.63831082321167C97.91706497512817,119.42884082321167,98.35932597512817,119.55295082321167,98.53779297512817,119.90982082321167C98.53779297512817,119.90982082321167,102.18455197512817,127.26457082321167,102.18455197512817,127.26457082321167C102.54917597512818,128.0016408232117,103.29407897512817,128.45934082321168,104.11652797512818,128.45934082321168C104.11652797512818,128.45934082321168,112.04630497512818,128.45934082321168,112.04630497512818,128.45934082321168C113.20362497512818,128.46013082321167,114.15375497512818,127.54436082321168,114.19553497512817,126.38793082321168C114.19553497512817,126.38793082321168,115.06455497512817,103.47018782321167,115.06455497512817,103.47018782321167C115.07233497512817,103.34604182321166,115.11112497512818,103.22189682321167,115.18095497512817,103.11328482321167C122.03220497512817,93.39224582321167,126.07468497512818,81.54548982321167,126.07468497512818,68.75220082321167C126.07468497512818,59.24064982321167,123.84006497512817,50.26434682321167,119.89072497512818,42.28901982321167C119.89072497512818,42.28901982321167,119.89072497512818,42.28903482321167,119.89072497512818,42.28903482321167ZM64.90229497512817,99.13330382321168C52.37141097512817,99.13330382321168,39.73183897512818,90.35876782321166,39.73183897512818,77.82931882321166C39.73183897512818,65.29985382321166,50.97474297512817,51.63766782321167,63.50565797512817,51.63766782321167C76.03658697512817,51.63766782321167,87.87684297512817,63.54649682321167,87.87684297512817,76.07599182321167C87.87684297512817,88.60548782321167,77.43314797512818,99.13330382321168,64.90227897512818,99.13330382321168C64.90227897512818,99.13330382321168,64.90229497512817,99.13330382321168,64.90229497512817,99.13330382321168Z" fill="#FFA750" fill-opacity="1"/><path d="M111.20415,130.37219C111.20415,130.37219,103.00142,130.37219,103.00142,130.37219C101.27208,130.37219,99.718781,129.40807,98.953583,127.85474C98.953583,127.85474,95.954056,121.80977,95.954056,121.80977C85.792404,127.67873,74.238037,130.62471,62.446568,130.34924C51.879368,130.09674,41.495747,127.18138,32.305882,121.89395C32.305882,121.89395,29.352268,127.85474,29.352268,127.85474C28.587086,129.40808,27.033756,130.36453,25.304447,130.36453C25.304447,130.36453,17.101749,130.36453,17.101749,130.36453C14.660809,130.36453,12.678982,128.45158,12.587162,126.01064C12.587162,126.01064,11.722507,103.12398,11.722507,103.12398C3.8563952,91.99054,-0.19909334,78.951736,0.0075182957,65.385086C0.1528964,55.935062,2.3107257,46.867619,6.4274173,38.412327C4.3308139,34.701176,2.2265429,29.015842,3.0070376,21.876698C4.1930728,12.885761,5.2719836,7.5677371,5.685184,5.7006412C6.0284686,4.1774478,7.4828601,3.1723363,9.0290489,3.3897741C9.0290489,3.3897741,22.542225,5.3410068,22.542225,5.3410068C23.529316,5.4251742,29.719669,6.0679355,34.892307,9.3658791C37.723499,7.9196811,40.677113,6.6800723,43.684284,5.670032C43.378208,4.4380832,43.600117,3.1219671,44.319386,2.0430639C45.169331,0.76518607,46.602955,-0.0019038001,48.137684,0.0000035485994C48.137684,0.0000035485994,80.443726,0.0000035485994,80.443726,0.0000035485994C81.951141,0.0000035485994,83.366745,0.74223685,84.22374,1.9894903C84.9991,3.1164739,85.229309,4.5313601,84.851196,5.8460269C87.743591,6.8407626,90.590088,8.0650673,93.337112,9.4883156C98.548004,6.08324,104.86844,5.4251742,105.87083,5.3410068C105.87083,5.3410068,119.38402,3.3897741,119.38402,3.3897741C120.92969,3.1678808,122.39883,4.1855807,122.72787,5.7006412C123.14107,7.5600467,124.21999,12.855122,125.40602,21.830814C126.21712,29.214863,123.98279,35.030262,121.76373,38.810307C125.9034,47.456898,128,56.72327,128,66.364578C128,79.472214,124.05931,92.05957,116.59874,102.80266C116.59874,102.80266,115.71877,126.01077,115.71877,126.01077C115.62694,128.45938,113.63747,130.37234,111.20416,130.37234C111.20416,130.37234,111.20415,130.37219,111.20415,130.37219ZM96.627365,116.56061C96.902832,116.56061,97.178299,116.59886,97.453751,116.67538C98.257217,116.90492,98.930573,117.47118,99.305511,118.22105C99.305511,118.22105,103.07022,125.81932,103.07022,125.81932C103.07022,125.81932,111.13527,125.78108,111.13527,125.78108C111.13527,125.78108,112.03053,102.1675,112.03053,102.1675C112.05348,101.59361,112.23712,101.04268,112.56616,100.56825C119.65944,90.513733,123.40883,78.691589,123.40883,66.372101C123.40883,57.143955,121.34285,48.290714,117.26439,40.057346C116.79764,39.123829,116.85121,38.037266,117.40979,37.149647C119.37631,34.027699,121.5724,28.931553,120.85313,22.389225C119.92723,15.372471,119.07022,10.674229,118.55757,8.1567879C118.55757,8.1567879,106.49059,9.9014015,106.49059,9.9014015C106.45232,9.9090462,106.37582,9.9167061,106.33754,9.9167061C106.03148,9.9396553,99.741669,10.475285,95.219406,13.780888C94.293533,14.454258,93.04628,14.54607,92.043884,14.002796C89.077255,12.407536,85.979736,11.068699,82.785141,10.000874C81.759308,9.6570625,80.917023,8.9114418,80.451324,7.9348636C79.992203,6.9630923,79.953964,5.8688693,80.336548,4.858829C80.336548,4.858829,80.443665,4.5757022,80.443665,4.5757022C80.443665,4.5757022,48.145252,4.5910068,48.145252,4.5910068C48.57375,5.5857577,48.558445,6.7335238,48.099323,7.7206302C47.63599,8.7261696,46.773075,9.4919624,45.719608,9.8325233C42.433521,10.898869,39.246067,12.248096,36.193058,13.86504C35.197605,14.394611,33.988102,14.314564,33.071095,13.658451C28.556507,10.444691,22.396763,9.9243507,22.1366,9.9090462C22.083042,9.9014015,21.983555,9.8937569,21.929996,9.886097C21.929996,9.886097,9.8706856,8.149128,9.8706856,8.149128C9.3580055,10.666584,8.5009956,15.380131,7.5751147,22.427494C7.0165439,27.493015,8.1031075,32.344288,10.811855,36.797672C11.347492,37.685276,11.393406,38.756535,10.92664,39.682407C6.8711505,47.732151,4.743938,56.401707,4.6062045,65.446136C4.4149051,78.178818,8.2637901,90.421814,15.739651,100.83597C16.083988,101.31036,16.27528,101.86896,16.298237,102.45815C16.298237,102.45815,17.178196,125.76566,17.178196,125.76566C17.178196,125.76566,25.312122,125.76566,25.312122,125.76566C25.312122,125.76566,28.97736,118.29744,28.97736,118.29744C29.344639,117.54756,30.018009,116.98898,30.821445,116.75177C31.624897,116.52223,32.497196,116.63699,33.21648,117.08081C42.077335,122.50595,52.223713,125.50549,62.568958,125.75035C74.062042,126.01816,85.310196,122.99568,95.066299,116.98897C95.533081,116.71352,96.076355,116.56047,96.627289,116.56047C96.627289,116.56047,96.627365,116.56061,96.627365,116.56061ZM30.79842,121.00633C30.80608,121.00633,30.80608,121.00633,30.79842,121.00633C30.80608,121.00633,30.80608,121.00633,30.79842,121.00633C30.79842,121.00633,30.79842,121.00633,30.79842,121.00633ZM12.005497,103.52946C12.005497,103.52946,12.005497,103.52946,12.005497,103.52946ZM121.37349,38.014347C121.37349,38.014347,121.37349,38.022007,121.37349,38.014347C121.37349,38.022007,121.37349,38.014347,121.37349,38.014347C121.37349,38.014347,121.37349,38.014347,121.37349,38.014347ZM94.209412,9.9626961C94.209412,9.9626961,94.209412,9.9626961,94.209412,9.9626961Z" fill="#333333" fill-opacity="1"/><path d="M49.438602447509766,79.4311337253418C49.438602447509766,89.0578117253418,57.24255754750976,96.8617977253418,66.86926644750977,96.8617977253418C76.49591444750976,96.8617977253418,84.29986944750976,89.0578117253418,84.29986944750976,79.4311337253418C84.29986944750976,69.8044548253418,76.49591444750976,62.0004997253418,66.86923644750976,62.0004997253418C57.24255754750976,62.0004997253418,49.438602447509766,69.8044548253418,49.438602447509766,79.4311637253418C49.438602447509766,79.4311637253418,49.438602447509766,79.4311337253418,49.438602447509766,79.4311337253418Z" fill="#FF917B" fill-opacity="1"/><path d="M63.99995805200196,98.47156857104491C52.09498975200195,98.47156857104491,42.41057205200195,88.78715157104492,42.41057205200195,76.88218357104492C42.41057205200195,64.97715377104493,52.09498975200195,55.29276657104492,63.99995805200196,55.29276657104492C75.90495705200195,55.29276657104492,85.58937405200194,64.97715377104493,85.58937405200194,76.88218357104492C85.58937405200194,88.78715157104492,75.90495705200195,98.47156857104491,63.99995805200196,98.47156857104491C63.99995805200196,98.47156857104491,63.99995805200196,98.47156857104491,63.99995805200196,98.47156857104491ZM63.99995805200196,59.143413571044924C54.21928805200196,59.143413571044924,46.261219052001955,67.10148257104493,46.261219052001955,76.88218357104492C46.261219052001955,86.66288357104492,54.21925705200195,94.62089157104492,63.99995805200196,94.62089157104492C73.78068905200195,94.62089157104492,81.73869705200195,86.66288357104492,81.73869705200195,76.88218357104492C81.73869705200195,67.10148257104493,73.78068905200195,59.143413571044924,63.99995805200196,59.143413571044924C63.99995805200196,59.143413571044924,63.99995805200196,59.143413571044924,63.99995805200196,59.143413571044924Z" fill="#333333" fill-opacity="1"/><path d="M52.62587357739258,76.50692336303712C48.71791457739258,76.50692336303712,45.54652757739258,74.15157736303712,45.54652757739258,71.26357636303712C45.54652757739258,68.3691673630371,48.72658157739258,66.0202903630371,52.62587357739258,66.0202903630371C56.52516557739258,66.0202903630371,59.705219577392576,68.37557636303711,59.705219577392576,71.26357636303712C59.705219577392576,74.15157736303712,56.52516557739258,76.50692336303712,52.62587357739258,76.50692336303712C52.62587357739258,76.50692336303712,52.62587357739258,76.50692336303712,52.62587357739258,76.50692336303712ZM52.62587357739258,69.87093736303711C51.58601757739258,69.87093736303711,50.74556357739257,70.4934653630371,50.74556357739257,71.26357636303712C50.74556357739257,72.03371836303711,51.58601757739258,72.65627636303711,52.62587357739258,72.65627636303711C53.66566857739258,72.65627636303711,54.50618357739258,72.03371836303711,54.50618357739258,71.26357636303712C54.50618357739258,70.4934653630371,53.65700157739258,69.87093736303711,52.62587357739258,69.87093736303711C52.62587357739258,69.87093736303711,52.62587357739258,69.87093736303711,52.62587357739258,69.87093736303711ZM75.96095657739258,76.50692336303712C72.06166457739258,76.50692336303712,68.88161057739258,74.15157736303712,68.88161057739258,71.26357636303712C68.88161057739258,68.3691673630371,72.06166457739258,66.0202903630371,75.96095657739258,66.0202903630371C79.86024857739258,66.0202903630371,83.04036357739258,68.37557636303711,83.04036357739258,71.26357636303712C83.04036357739258,74.15157736303712,79.86891557739258,76.50692336303712,75.96095657739258,76.50692336303712C75.96095657739258,76.50692336303712,75.96095657739258,76.50692336303712,75.96095657739258,76.50692336303712ZM75.96095657739258,69.87093736303711C74.92116157739258,69.87093736303711,74.08064657739257,70.4934653630371,74.08064657739257,71.26357636303712C74.08064657739257,72.03371836303711,74.92116157739258,72.65627636303711,75.96095657739258,72.65627636303711C77.00075157739258,72.65627636303711,77.84132757739258,72.03371836303711,77.84132757739258,71.26357636303712C77.84132757739258,70.4934653630371,77.00075157739258,69.87093736303711,75.96095657739258,69.87093736303711C75.96095657739258,69.87093736303711,75.96095657739258,69.87093736303711,75.96095657739258,69.87093736303711ZM47.756122577392574,47.13271736303711C46.31776857739258,47.13271736303711,45.15663557739258,46.27273136303711,45.15663557739258,45.20736316303711C45.15663557739258,42.043422663037106,41.68196457739258,39.46987536303711,37.410053577392574,39.46987536303711C33.13820267739258,39.46987536303711,29.663532277392576,42.043422663037106,29.663532277392576,45.20736316303711C29.663532277392576,46.27273136303711,28.50239947739258,47.13271736303711,27.063983877392577,47.13271736303711C25.62556837739258,47.13271736303711,24.464435577392635,46.27273136303711,24.464435577392635,45.20736316303711C24.464435577392635,39.91912456303711,30.270038577392576,35.61922836303711,37.410053577392574,35.61922836303711C44.55012857739258,35.61922836303711,50.35567057739258,39.91912456303711,50.35567057739258,45.20736316303711C50.35567057739258,46.27273136303711,49.19453857739258,47.13271736303711,47.756122577392574,47.13271736303711C47.756122577392574,47.13271736303711,47.756122577392574,47.13271736303711,47.756122577392574,47.13271736303711ZM101.46217757739258,47.13271736303711C100.02376157739258,47.13271736303711,98.86268957739257,46.27273136303711,98.86268957739257,45.20736316303711C98.86268957739257,42.043422663037106,95.38801957739258,39.46987536303711,91.11604657739258,39.46987536303711C86.84419657739258,39.46987536303711,83.36946457739258,42.043422663037106,83.36946457739258,45.20736316303711C83.36946457739258,46.27273136303711,82.20833157739258,47.13271736303711,80.76997757739258,47.13271736303711C79.33156157739258,47.13271736303711,78.17042957739258,46.27273136303711,78.17042957739258,45.20736316303711C78.17042957739258,39.91912456303711,83.97609357739258,35.61922836303711,91.11604657739258,35.61922836303711C98.25612257739257,35.61922836303711,104.06166457739258,39.91912456303711,104.06166457739258,45.20736316303711C104.06166457739258,46.27273136303711,102.90059257739257,47.13271736303711,101.46217757739258,47.13271736303711C101.46217757739258,47.13271736303711,101.46217757739258,47.13271736303711,101.46217757739258,47.13271736303711Z" fill="#333333" fill-opacity="1"/></svg>