<svg xmlns="http://www.w3.org/2000/svg" xmlns:xlink="http://www.w3.org/1999/xlink" fill="none" version="1.1" width="129.15826416015625" height="83.28005981445312" viewBox="0 0 129.15826416015625 83.28005981445312"><path d="M106.30852861877442,37.450687072509766C106.31642861877441,37.12103607250977,106.35729861877441,36.79517007250976,106.35729861877441,36.46188707250977C106.35729861877441,18.625629072509767,91.89890461877441,4.167118072509794,74.06253961877441,4.167118072509794C61.19510861877441,4.167118072509794,50.118203618774416,11.711612672509766,44.92566861877442,22.601414072509765C42.675393618774415,21.470051072509765,40.17266261877442,20.774097072509765,37.482858618774415,20.774097072509765C29.238305618774415,20.774097072509765,22.438135618774414,26.772617072509764,21.099222618774412,34.63461707250977C11.255365418774414,37.99573107250976,4.166818618774414,47.30249407250977,4.166818618774414,58.281773072509765C4.166818618774414,72.08101307250976,15.353311618774415,83.26802407250976,29.148767618774414,83.28004807250977C29.148767618774414,83.28004807250977,106.35735861877441,83.28004807250977,106.35735861877441,83.28004807250977C106.35735861877441,83.28004807250977,106.35735861877441,83.27595907250976,106.35735861877441,83.27595907250976C118.96445861877442,83.21089507250977,129.15827861877443,72.98036607250977,129.15827861877443,60.36531407250977C129.15827861877443,47.72572707250976,118.93564861877441,37.48735407250977,106.30852861877442,37.45070307250977C106.30852861877442,37.45070307250977,106.30852861877442,37.450687072509766,106.30852861877442,37.450687072509766Z" fill="#98C4D8" fill-opacity="1"/><path d="M102.1417,33.283585C102.14959,32.953934,102.19048,32.628067,102.19048,32.294769C102.19048,14.458527,87.732079,0,69.895714,0C57.028282,0,45.951378,7.5444946,40.758842,18.434311C38.508568,17.302933,36.005829,16.606995,33.316017,16.606995C25.071487,16.606995,18.271317,22.605499,16.932396,30.467514C7.0885391,33.828629,0,43.135376,0,54.11467C0,67.913925,11.186485,79.100906,24.981934,79.112946C24.981934,79.112946,102.19067,79.112946,102.19067,79.112946C102.19067,79.112946,102.19067,79.108841,102.19067,79.108841C114.79777,79.043793,124.9916,68.813263,124.9916,56.198212C124.99128,43.558746,114.76867,33.320251,102.14169,33.283585C102.14169,33.283585,102.1417,33.283585,102.1417,33.283585Z" fill="#EFD9A0" fill-opacity="1"/><path d="M43.64406451447265,28.42043299638672C44.81636683447265,30.12709779638672,48.70668653447265,29.49117279638672,52.33333493447266,27.00005339638672C55.95998333447265,24.508933496386717,57.949637334472655,21.10591839638672,56.77733533447265,19.399253426386718C55.60500233447266,17.692557866386718,51.71468253447266,18.328513686386717,48.08803413447266,20.81963299638672C44.46138633447266,23.31078289638672,42.471762304472655,26.71376799638672,43.64406451447265,28.42043299638672C43.64406451447265,28.42043299638672,43.64406451447265,28.42043299638672,43.64406451447265,28.42043299638672Z" fill="#FEFEFE" fill-opacity="1"/><path d="M35.59380266005859,41.53086851538086C36.37535786005859,42.66868591538086,38.623038560058596,42.48228451538086,40.614127160058594,41.11460871538086C42.605216060058595,39.74693321538086,43.585776360058595,37.71580521538086,42.804190660058595,36.57804888538086C42.022665960058596,35.44023147538086,39.774985360058594,35.62657180538086,37.783866160058594,36.99424751538086C35.79277727005859,38.36198451538086,34.81224746005859,40.39305111538086,35.59380266005859,41.53086851538086C35.59380266005859,41.53086851538086,35.59380266005859,41.53086851538086,35.59380266005859,41.53086851538086Z" fill="#FEFEFE" fill-opacity="1"/></svg>