<svg xmlns="http://www.w3.org/2000/svg" xmlns:xlink="http://www.w3.org/1999/xlink" fill="none" version="1.1" width="32" height="26.7044677734375" viewBox="0 0 32 26.7044677734375"><path d="M2.051654815673828,20.896116647338868C2.051654815673828,20.896116647338868,6.1355553156738285,20.896116647338868,6.1355553156738285,20.896116647338868C6.1355553156738285,20.896116647338868,6.1355553156738285,26.005430647338866,6.1355553156738285,26.005430647338866C6.1355553156738285,26.005430647338866,2.051654815673828,26.005430647338866,2.051654815673828,26.005430647338866C2.051654815673828,26.005430647338866,2.051654815673828,20.896116647338868,2.051654815673828,20.896116647338868C2.051654815673828,20.896116647338868,2.051654815673828,20.896116647338868,2.051654815673828,20.896116647338868ZM10.219463315673828,12.728330647338868C10.219463315673828,12.728330647338868,14.303363815673828,12.728330647338868,14.303363815673828,12.728330647338868C14.303363815673828,12.728330647338868,14.303363815673828,26.005430647338866,14.303363815673828,26.005430647338866C14.303363815673828,26.005430647338866,10.219463315673828,26.005430647338866,10.219463315673828,26.005430647338866C10.219463315673828,26.005430647338866,10.219463315673828,12.728330647338868,10.219463315673828,12.728330647338868C10.219463315673828,12.728330647338868,10.219463315673828,12.728330647338868,10.219463315673828,12.728330647338868ZM17.37955881567383,16.812223447338866C17.37955881567383,16.812223447338866,21.463458815673828,16.812223447338866,21.463458815673828,16.812223447338866C21.463458815673828,16.812223447338866,21.463458815673828,26.005430647338866,21.463458815673828,26.005430647338866C21.463458815673828,26.005430647338866,17.37955881567383,26.005430647338866,17.37955881567383,26.005430647338866C17.37955881567383,26.005430647338866,17.37955881567383,16.812223447338866,17.37955881567383,16.812223447338866C17.37955881567383,16.812223447338866,17.37955881567383,16.812223447338866,17.37955881567383,16.812223447338866ZM26.555072815673828,7.619016647338867C26.555072815673828,7.619016647338867,30.63898081567383,7.619016647338867,30.63898081567383,7.619016647338867C30.63898081567383,7.619016647338867,30.63898081567383,24.980039647338867,30.63898081567383,24.980039647338867C30.63898081567383,24.980039647338867,26.555072815673828,24.980039647338867,26.555072815673828,24.980039647338867C26.555072815673828,24.980039647338867,26.555072815673828,7.619016647338867,26.555072815673828,7.619016647338867C26.555072815673828,7.619016647338867,26.555072815673828,7.619016647338867,26.555072815673828,7.619016647338867Z" fill="#CAE4FF" fill-opacity="1"/><path d="M4.136936049024964,17.45825C5.321445349024963,17.45825,6.293804249024963,16.485884,6.276126949024963,15.301374C6.276126949024963,15.018507,6.2230874490249635,14.753325,6.117015949024964,14.488142C6.117015949024964,14.488142,11.226314149024963,9.378828,11.226314149024963,9.378828C11.491504349024963,9.4848919,11.756686849024963,9.5379314,12.039554649024963,9.5379314C12.552257649024963,9.5379314,13.029597649024963,9.3434734,13.418536649024963,9.0075665C13.418536649024963,9.0075665,17.838351649024965,11.217466,17.838351649024965,11.217466C17.838351649024965,11.270506,17.802981649024964,11.305861,17.802981649024964,11.3589C17.802981649024964,12.543409,18.757664649024964,13.515776,19.942181649024963,13.515776C21.12669064902496,13.515776,22.099049649024963,12.561094,22.099049649024963,11.37657C22.099049649024963,11.093718,22.046001649024962,10.81085,21.939922649024965,10.545652C21.939922649024965,10.545652,27.084576649024964,4.1104107,27.084576649024964,4.1104107C28.180691649024965,4.5523968,29.43592464902496,4.0220165,29.877895649024964,2.9259014C30.196117649024963,2.1303463,30.019329649024964,1.2110195,29.400570649024964,0.60993004C28.55195264902496,-0.20331001,27.208340649024965,-0.20331001,26.359737649024964,0.60993004C25.740963649024962,1.2287121,25.564175649024964,2.148016,25.900066649024964,2.9612713C25.900066649024964,2.9612713,20.755421649024964,9.3964977,20.755421649024964,9.3964977C20.030575649024964,9.1313152,19.199657649024964,9.2550793,18.598560649024964,9.7677746C18.598560649024964,9.7677746,14.161067649024963,7.5578747,14.161067649024963,7.5578747C14.161067649024963,7.5048199,14.196422649024964,7.4694653,14.196422649024964,7.416441C14.196422649024964,6.8506908,13.966594649024964,6.3026409,13.577655649024964,5.8960247C12.729052649024963,5.0827618,11.385425249024964,5.0827618,10.536830549024963,5.8960247C9.935733949024964,6.5147991,9.741260649024962,7.4341259,10.077159549024964,8.2296886C10.077159549024964,8.2296886,4.950183749024964,13.356657,4.950183749024964,13.356657C4.154621049024963,13.038435,3.252979249024963,13.232908,2.6165351290249634,13.816313C1.7679252190249635,14.647245,1.7679252190249635,16.008543,2.5988425590249635,16.857145C3.023151349024963,17.246092,3.5712089490249634,17.47592,4.136943649024964,17.45825C4.136943649024964,17.45825,4.136936049024964,17.45825,4.136936049024964,17.45825ZM27.544247649024964,1.776762C27.738705649024965,1.599966,28.056942649024965,1.599966,28.233730649024963,1.8121166C28.410534649024964,2.0065823,28.410534649024964,2.2894573,28.233730649024963,2.4839306C28.039257649024965,2.6607189,27.738705649024965,2.6607189,27.544247649024964,2.4839306C27.349773649024964,2.2717724,27.349773649024964,1.9712353,27.544247649024964,1.776762C27.544247649024964,1.776762,27.544247649024964,1.776762,27.544247649024964,1.776762ZM19.623951649024963,11.005308C19.818424649024962,10.81085,20.118961649024964,10.81085,20.313442649024964,11.005308C20.507908649024962,11.199797,20.507908649024962,11.500334,20.313442649024964,11.694807C20.118961649024964,11.871595,19.818424649024962,11.871595,19.623951649024963,11.694807C19.429478649024965,11.500334,19.429478649024965,11.199797,19.623951649024963,11.005308C19.623951649024963,11.005308,19.623951649024963,11.005308,19.623951649024963,11.005308ZM11.703654849024963,7.0451641C11.898120549024963,6.8506908,12.198672649024964,6.8506908,12.393138649024964,7.0451641C12.587611649024963,7.2396374,12.587611649024963,7.5401897,12.393138649024964,7.7346478C12.198672649024964,7.9114513,11.898120549024963,7.9114513,11.703654849024963,7.7346478C11.544543849024963,7.5578747,11.544543849024963,7.2396374,11.703654849024963,7.0451641C11.703654849024963,7.0451641,11.703654849024963,7.0451641,11.703654849024963,7.0451641ZM3.801036849024963,14.965467C3.9955023490249633,14.771009,4.296062349024963,14.771009,4.490527949024964,14.965467C4.684993649024964,15.159941,4.684993649024964,15.478178,4.490527949024964,15.654951C4.296062349024963,15.831755,3.9955023490249633,15.831755,3.801036849024963,15.654951C3.6419258490249633,15.478178,3.6772804490249635,15.177626,3.801036849024963,14.965467C3.801036849024963,14.965467,3.801036849024963,14.965467,3.801036849024963,14.965467Z" fill="#0972E7" fill-opacity="1"/><path d="M31.186172,25.04264641003418C31.186172,25.04264641003418,30.691147,25.04264641003418,30.691147,25.04264641003418C30.691147,25.04264641003418,30.691147,7.39875603003418,30.691147,7.39875603003418C30.691147,6.93910027003418,30.319885,6.56782341003418,29.860222,6.56782341003418C29.860222,6.56782341003418,25.900078,6.56782341003418,25.900078,6.56782341003418C25.440414,6.56782341003418,25.069145,6.93910027003418,25.069145,7.39875603003418C25.069145,7.39875603003418,25.069145,25.04264641003418,25.069145,25.04264641003418C25.069145,25.04264641003418,22.770851,25.04264641003418,22.770851,25.04264641003418C22.770851,25.04264641003418,22.770851,16.62730241003418,22.770851,16.62730241003418C22.770851,16.16764641003418,22.399582,15.79640011003418,21.939926,15.79640011003418C21.939926,15.79640011003418,17.979782,15.79640011003418,17.979782,15.79640011003418C17.520119,15.79640011003418,17.148857,16.16764641003418,17.148857,16.62730241003418C17.148857,16.62730241003418,17.148857,25.04264641003418,17.148857,25.04264641003418C17.148857,25.04264641003418,14.868233,25.04264641003418,14.868233,25.04264641003418C14.868233,25.04264641003418,14.868233,12.68485831003418,14.868233,12.68485831003418C14.868233,12.225172010034179,14.496971,11.85392571003418,14.037308,11.85392571003418C14.037308,11.85392571003418,10.077168,11.85392571003418,10.077168,11.85392571003418C9.6175041,11.85392571003418,9.2462425,12.225172010034179,9.2462425,12.68485831003418C9.2462425,12.68485831003418,9.2462425,25.04264641003418,9.2462425,25.04264641003418C9.2462425,25.04264641003418,6.9479408,25.04264641003418,6.9479408,25.04264641003418C6.9479408,25.04264641003418,6.9479408,20.587476410034178,6.9479408,20.587476410034178C6.9479408,20.12782141003418,6.5766754,19.75651341003418,6.1170158,19.75651341003418C6.1170158,19.75651341003418,2.1568718,19.75651341003418,2.1568718,19.75651341003418C1.6972084,19.75651341003418,1.325943,20.12782141003418,1.325943,20.587476410034178C1.325943,20.587476410034178,1.325943,25.04264641003418,1.325943,25.04264641003418C1.325943,25.04264641003418,0.83092499,25.04264641003418,0.83092499,25.04264641003418C0.37126541,25.04264641003418,0,25.41389241003418,0,25.87354841003418C0,26.33320441003418,0.37126541,26.70448141003418,0.83092499,26.70448141003418C0.83092499,26.70448141003418,31.168488,26.70448141003418,31.168488,26.70448141003418C31.628151,26.70448141003418,31.999405,26.33320441003418,31.999405,25.87354841003418C32.017097,25.41389241003418,31.645828,25.04264641003418,31.186157,25.04264641003418C31.186157,25.04264641003418,31.186172,25.04264641003418,31.186172,25.04264641003418ZM2.9877892,25.04264641003418C2.9877892,25.04264641003418,2.9877892,21.41840941003418,2.9877892,21.41840941003418C2.9877892,21.41840941003418,5.2860947,21.41840941003418,5.2860947,21.41840941003418C5.2860947,21.41840941003418,5.2860947,25.04264641003418,5.2860947,25.04264641003418C5.2860947,25.04264641003418,2.9877892,25.04264641003418,2.9877892,25.04264641003418C2.9877892,25.04264641003418,2.9877892,25.04264641003418,2.9877892,25.04264641003418ZM10.908089,25.04264641003418C10.908089,25.04264641003418,10.908089,13.49809071003418,10.908089,13.49809071003418C10.908089,13.49809071003418,13.20639,13.49809071003418,13.20639,13.49809071003418C13.20639,13.49809071003418,13.20639,25.04264641003418,13.20639,25.04264641003418C13.20639,25.04264641003418,10.908089,25.04264641003418,10.908089,25.04264641003418C10.908089,25.04264641003418,10.908089,25.04264641003418,10.908089,25.04264641003418ZM18.828384,25.04264641003418C18.828384,25.04264641003418,18.828384,17.45826541003418,18.828384,17.45826541003418C18.828384,17.45826541003418,21.126678,17.45826541003418,21.126678,17.45826541003418C21.126678,17.45826541003418,21.126678,25.04264641003418,21.126678,25.04264641003418C21.126678,25.04264641003418,18.828384,25.04264641003418,18.828384,25.04264641003418C18.828384,25.04264641003418,18.828384,25.04264641003418,18.828384,25.04264641003418ZM26.74868,25.04264641003418C26.74868,25.04264641003418,26.74868,8.229688610034179,26.74868,8.229688610034179C26.74868,8.229688610034179,29.046982,8.229688610034179,29.046982,8.229688610034179C29.046982,8.229688610034179,29.046982,25.04264641003418,29.046982,25.04264641003418C29.046982,25.04264641003418,26.74868,25.04264641003418,26.74868,25.04264641003418C26.74868,25.04264641003418,26.74868,25.04264641003418,26.74868,25.04264641003418Z" fill="#0972E7" fill-opacity="1"/></svg>